<?xml version="1.0" encoding="UTF-8"?>
<svg width="86px" height="23px" viewBox="0 0 86 23" version="1.1" xmlns="http://www.w3.org/2000/svg" xmlns:xlink="http://www.w3.org/1999/xlink">
    <!-- Generator: Sketch 50.2 (55047) - http://www.bohemiancoding.com/sketch -->
    <title>AMAGI-LOGO-white</title>
    <desc>Created with Sketch.</desc>
    <defs></defs>
    <g id="Page-1" stroke="none" stroke-width="1" fill="none" fill-rule="evenodd">
        <g id="AMAGI-LOGO-white" fill="#83959F" fill-rule="nonzero">
            <path d="M15.9642879,0.348223615 L13.7005188,0.348223615 C13.2760622,0.348223615 12.9223482,0.696447231 12.9223482,1.11431557 L12.9223482,1.57861372 L12.8044436,1.48575409 C11.6253972,0.580372692 10.1397988,0.116074538 8.44197203,0.116074538 C5.94239372,0.116074538 3.91443396,0.951811216 2.4052546,2.60006966 C0.966818025,4.20189829 0.212228347,6.19838036 0.212228347,8.54308603 C0.212228347,10.8877917 0.943237098,12.8842738 2.4052546,14.4628875 C3.91443396,16.1111459 5.89523186,16.9468826 8.27690553,16.9468826 C10.069056,16.9468826 11.5782354,16.4825845 12.8044436,15.5772031 L12.9223482,15.5075583 L12.9223482,15.9486416 C12.9223482,16.3665099 13.2760622,16.6915186 13.7005188,16.6915186 L15.9642879,16.6915186 C16.3887446,16.6915186 16.7188776,16.343295 16.7188776,15.9486416 L16.7188776,1.11431557 C16.7424585,0.673232323 16.3887446,0.348223615 15.9642879,0.348223615 Z M11.8847874,12.0021073 C11.0830359,12.9307036 10.0218942,13.3950017 8.60703852,13.3950017 C7.2157638,13.3950017 6.13104114,12.9307036 5.25854682,12.0021073 C4.43321436,11.0967259 4.03233859,9.9591954 4.03233859,8.51987113 C4.03233859,7.08054685 4.43321436,5.96623128 5.25854682,5.03763497 C6.13104114,4.08582375 7.2157638,3.6215256 8.60703852,3.6215256 C9.99831324,3.6215256 11.0830359,4.08582375 11.8847874,5.01442006 C12.662958,5.91980146 13.0638338,7.08054685 13.0638338,8.49665622 C13.0638338,9.93598049 12.686539,11.073511 11.8847874,12.0021073 Z" id="Shape"></path>
            <path d="M36.0552381,3.6215256 C36.9277324,3.6215256 37.6115793,3.90010449 38.1539406,4.50369209 C38.7434638,5.15370951 39.0264349,5.98944619 39.0264349,7.01090212 L39.0264349,15.9254267 C39.0264349,16.343295 39.3801488,16.6683037 39.8046055,16.6683037 L42.0683746,16.6683037 C42.4928313,16.6683037 42.8465452,16.3200801 42.8465452,15.9254267 L42.8465452,6.96447231 C42.8465452,4.99120515 42.2098601,3.3197318 40.960071,1.99648206 L40.960071,1.97326715 C40.3705478,1.36967955 39.6867009,0.9053814 38.9085303,0.580372692 C38.1539406,0.255363985 37.3286081,0.0928596308 36.5032757,0.0928596308 C35.6779432,0.0928596308 34.9233535,0.232149077 34.2630876,0.464298154 C33.1076221,0.882166493 32.1408041,1.53218391 31.4097954,2.39113549 L31.3626335,2.46078022 L31.3154716,2.39113549 C30.867434,1.83397771 30.3486536,1.36967955 29.7591304,0.998241031 C28.7687315,0.394653431 27.7075897,0.0928596308 26.5521243,0.0928596308 C25.0901068,0.0928596308 23.8638986,0.464298154 22.8499187,1.2071752 L22.7320141,1.27681992 L22.7320141,1.06788575 C22.7320141,0.650017416 22.3783001,0.3017938 21.9774244,0.3017938 L19.7136553,0.3017938 C19.2891987,0.3017938 18.9354847,0.650017416 18.9354847,1.06788575 L18.9354847,15.9022118 C18.9354847,16.3200801 19.2891987,16.6450888 19.7136553,16.6450888 L21.9774244,16.6450888 C22.4018811,16.6450888 22.7320141,16.2968652 22.7320141,15.9022118 L22.7320141,7.03411703 C22.7320141,5.94301637 23.0385661,5.10727969 23.6988321,4.50369209 C24.3355171,3.90010449 25.0901068,3.6215256 26.0333439,3.6215256 C26.9058382,3.6215256 27.5896851,3.90010449 28.1320464,4.50369209 C28.6979887,5.15370951 28.9809598,5.98944619 28.9809598,7.01090212 L28.9809598,15.9254267 C28.9809598,16.343295 29.3346737,16.6683037 29.7591304,16.6683037 L32.0228995,16.6683037 C32.4473562,16.6683037 32.7774891,16.3200801 32.7774891,15.9254267 L32.7774891,7.05733194 C32.7774891,5.96623128 33.1076221,5.1304946 33.7443072,4.526907 L33.791469,4.57333682 L33.7443072,4.526907 C34.3574113,3.9233194 35.112001,3.6215256 36.0552381,3.6215256 Z" id="Shape"></path>
            <path d="M60.2021078,0.348223615 L57.9383387,0.348223615 C57.513882,0.348223615 57.1601681,0.696447231 57.1601681,1.11431557 L57.1601681,1.57861372 L57.0422635,1.48575409 C55.8632171,0.580372692 54.4011996,0.116074538 52.6797919,0.116074538 C50.2037945,0.116074538 48.1758348,0.951811216 46.6666554,2.60006966 C45.2046379,4.20189829 44.4736292,6.19838036 44.4736292,8.54308603 C44.4736292,10.8877917 45.2046379,12.8842738 46.6666554,14.4628875 C48.1758348,16.1111459 50.1566327,16.9468826 52.5383063,16.9468826 C54.3304568,16.9468826 55.8396362,16.4825845 57.0658444,15.5772031 L57.1601681,15.5075583 L57.1601681,15.9486416 C57.1601681,16.3665099 57.513882,16.6915186 57.9383387,16.6915186 L60.2021078,16.6915186 C60.6265645,16.6915186 60.9802784,16.343295 60.9802784,15.9486416 L60.9802784,1.11431557 C60.9566974,0.673232323 60.6265645,0.348223615 60.2021078,0.348223615 Z M56.0990264,12.0021073 C55.2972749,12.9307036 54.2361331,13.3950017 52.8448584,13.3950017 C51.4535837,13.3950017 50.3452801,12.9307036 49.4963667,12.0021073 C48.6710342,11.0967259 48.2701585,9.9591954 48.2701585,8.51987113 C48.2701585,7.08054685 48.6710342,5.96623128 49.4963667,5.03763497 C50.3452801,4.08582375 51.4535837,3.6215256 52.8448584,3.6215256 C54.2361331,3.6215256 55.3208558,4.08582375 56.1226073,5.01442006 C56.9007779,5.91980146 57.3016537,7.08054685 57.3016537,8.49665622 C57.2780728,9.93598049 56.9007779,11.073511 56.0990264,12.0021073 Z" id="Shape"></path>
            <path d="M78.6188121,0.348223615 L76.3550431,0.348223615 C75.9305864,0.348223615 75.6004534,0.696447231 75.6004534,1.11431557 L75.6004534,1.53218391 L75.4825488,1.43932428 C74.3035024,0.557157785 72.8414849,0.0928596308 71.1436581,0.0928596308 C68.6440798,0.0928596308 66.61612,0.9053814 65.1069407,2.53042494 C63.6449232,4.08582375 62.9139144,6.05909091 62.9139144,8.38058168 C62.9139144,10.7020724 63.6449232,12.6753396 65.1069407,14.2307384 C66.61612,15.855782 68.5969179,16.6683037 70.9785916,16.6683037 C72.7471612,16.6683037 74.2799215,16.2040056 75.5061297,15.2986242 L75.6240343,15.2289794 L75.6240343,15.3682689 C75.6240343,16.6915186 75.2939013,17.6897597 74.6572163,18.3165622 C74.0205313,18.9433647 72.9358086,19.2915883 71.4030483,19.2915883 C68.4790133,19.2915883 67.913071,17.8986938 67.7244236,17.4343957 C67.606519,17.1558168 67.3235479,16.9700975 67.0169958,16.9700975 L64.5174175,16.9700975 C64.2816082,16.9700975 64.0457989,17.0861721 63.9043134,17.2718913 C63.7628278,17.4808255 63.715666,17.7361895 63.7864087,17.9451237 C64.2580273,19.4076628 65.1541025,20.5916231 66.4746345,21.4737896 C67.7715855,22.3559561 69.563736,22.7970394 71.8039241,22.7970394 C74.0676931,22.7970394 75.9305864,22.1702369 77.3218611,20.9166318 C78.7131358,19.6630268 79.4205636,17.8290491 79.4205636,15.4843434 L79.4205636,1.09110066 C79.3734018,0.673232323 79.0432688,0.348223615 78.6188121,0.348223615 Z M74.5393117,11.7931731 C74.1384359,12.2110414 73.6903983,12.5360502 73.1480369,12.7914141 C72.6056756,13.0235632 71.9689906,13.1628527 71.2615627,13.1628527 C69.8467071,13.1628527 68.7384035,12.7217694 67.913071,11.816388 C67.0877386,10.9110066 66.6868628,9.79669105 66.6868628,8.40379659 C66.6868628,7.01090212 67.0877386,5.91980146 67.913071,4.99120515 C68.7384035,4.08582375 69.8467071,3.64474051 71.2615627,3.64474051 C72.6292565,3.64474051 73.6903983,4.08582375 74.5393117,4.99120515 C75.3174823,5.87337165 75.6947771,7.01090212 75.6947771,8.40379659 C75.6947771,9.79669105 75.3174823,10.9110066 74.5393117,11.7931731 Z" id="Shape"></path>
            <path d="M84.7734342,0.185719262 L82.4625033,0.185719262 C82.0380466,0.185719262 81.6843327,0.533942877 81.6843327,0.951811216 L81.6843327,15.8789969 C81.6843327,16.3200801 82.0380466,16.6450888 82.4625033,16.6450888 L84.7734342,16.6450888 C85.1978909,16.6450888 85.5516048,16.2968652 85.5516048,15.8789969 L85.5516048,0.951811216 C85.5516048,0.533942877 85.1978909,0.185719262 84.7734342,0.185719262 Z" id="Shape"></path>
        </g>
    </g>
</svg>